<svg id="visual" viewBox="0 0 960 540" width="960" height="540" xmlns="http://www.w3.org/2000/svg" xmlns:xlink="http://www.w3.org/1999/xlink" version="1.1"><rect x="0" y="0" width="960" height="540" fill="#9AD0C2"></rect><path d="M516 0L516 0L516 270L516 270L516 540L0 540L0 270L0 270L0 0L0 0Z" fill="#ffffff"></path><path d="M415 0L415 0L415 270L415 270L415 540L0 540L0 270L0 270L0 0L0 0Z" fill="#e6f4ef"></path><path d="M315 0L315 0L315 270L315 270L315 540L0 540L0 270L0 270L0 0L0 0Z" fill="#cde8e0"></path><path d="M214 0L214 0L214 270L214 270L214 540L0 540L0 270L0 270L0 0L0 0Z" fill="#b4dcd1"></path><path d="M113 0L113 0L113 270L113 270L113 540L0 540L0 270L0 270L0 0L0 0Z" fill="#9ad0c2"></path></svg>