<svg id="visual" viewBox="0 0 900 600" width="900" height="600" xmlns="http://www.w3.org/2000/svg" xmlns:xlink="http://www.w3.org/1999/xlink" version="1.1"><rect x="0" y="0" width="900" height="600" fill="#34656D"></rect><path d="M444 600L472.5 596.8C501 593.7 558 587.3 560.7 580.8C563.3 574.3 511.7 567.7 472.3 561.2C433 554.7 406 548.3 411.7 542C417.3 535.7 455.7 529.3 487.8 522.8C520 516.3 546 509.7 535.7 503.2C525.3 496.7 478.7 490.3 473 484C467.3 477.7 502.7 471.3 510 464.8C517.3 458.3 496.7 451.7 475 445.2C453.3 438.7 430.7 432.3 452.2 425.8C473.7 419.3 539.3 412.7 560 406.2C580.7 399.7 556.3 393.3 551.2 387C546 380.7 560 374.3 534.8 367.8C509.7 361.3 445.3 354.7 422 348.2C398.7 341.7 416.3 335.3 417.7 329C419 322.7 404 316.3 426.5 309.8C449 303.3 509 296.7 508.2 290.2C507.3 283.7 445.7 277.3 423.5 271C401.3 264.7 418.7 258.3 457 251.8C495.3 245.3 554.7 238.7 552 232.2C549.3 225.7 484.7 219.3 447.2 213C409.7 206.7 399.3 200.3 410.2 193.8C421 187.3 453 180.7 478.7 174.2C504.3 167.7 523.7 161.3 513.3 154.8C503 148.3 463 141.7 439.5 135.2C416 128.7 409 122.3 437.3 116C465.7 109.7 529.3 103.3 541.7 96.8C554 90.3 515 83.7 511.2 77.2C507.3 70.7 538.7 64.3 552.5 58C566.3 51.7 562.7 45.3 562 38.8C561.3 32.3 563.7 25.7 550.8 19.2C538 12.7 510 6.3 496 3.2L482 0" fill="none" stroke-linecap="round" stroke-linejoin="miter" stroke="#9AD0C2" stroke-width="40"></path></svg>