<svg id="visual" viewBox="0 0 540 960" width="540" height="960" xmlns="http://www.w3.org/2000/svg" xmlns:xlink="http://www.w3.org/1999/xlink" version="1.1"><rect x="0" y="0" width="540" height="960" fill="#9AD0C2"></rect><path d="M0 466L270 466L270 466L540 466L540 466L540 961L540 961L270 961L270 961L0 961Z" fill="#ffffff"></path><path d="M0 561L270 561L270 561L540 561L540 561L540 961L540 961L270 961L270 961L0 961Z" fill="#e6f4ef"></path><path d="M0 657L270 657L270 657L540 657L540 657L540 961L540 961L270 961L270 961L0 961Z" fill="#cde8e0"></path><path d="M0 752L270 752L270 752L540 752L540 752L540 961L540 961L270 961L270 961L0 961Z" fill="#b4dcd1"></path><path d="M0 847L270 847L270 847L540 847L540 847L540 961L540 961L270 961L270 961L0 961Z" fill="#9ad0c2"></path></svg>